<svg width="242" height="393" viewBox="0 0 242 393" fill="none" xmlns="http://www.w3.org/2000/svg">
<path d="M10.9572 170.012C123.507 98.6038 11.9094 -8.24885 65.8741 -2.69463C66.8821 -2.59089 68.0092 -2.52238 69.0215 -2.56688L231.509 -9.70919C241.273 -10.1384 249.387 -2.26589 249.254 7.50671L244 392C239.685 344.737 195.158 329.929 206.336 293.297C207.497 289.49 208.025 285.332 206.351 281.722C180.355 225.65 45.4461 293.703 197.076 161.57C200.996 158.154 203.41 152.96 203.011 147.777C197.909 81.4965 168.194 82.7429 153.595 129.586C148.911 144.615 126.005 151.186 111.242 145.722C41.2983 119.834 -8.04583 286.266 2.53242 183.261C3.08378 177.892 6.40002 172.903 10.9572 170.012Z" fill="#8F9BA8" fill-opacity="0.1" stroke="#22252C"/>
</svg>
